<mxfile host="app.diagrams.net" modified="2021-12-15T09:36:13.976Z" agent="5.0 (Windows NT 10.0; Win64; x64) AppleWebKit/537.36 (KHTML, like Gecko) Chrome/96.0.4664.93 Safari/537.36" etag="0jTfN-M1XLvXxAJ_Ztv8" version="14.9.9" type="github">
  <diagram id="Nh3rWYsYwGnuKbGpa-Gz" name="Page-1">
    <mxGraphModel dx="1952" dy="525" grid="1" gridSize="9" guides="1" tooltips="1" connect="1" arrows="1" fold="1" page="1" pageScale="1" pageWidth="850" pageHeight="1100" math="0" shadow="0">
      <root>
        <mxCell id="0" />
        <mxCell id="1" parent="0" />
        <mxCell id="OnrqargmPEVyfRrU8eS--12" value="" style="shape=image;verticalLabelPosition=bottom;labelBackgroundColor=#ffffff;verticalAlign=top;aspect=fixed;imageAspect=0;image=data:image/svg+xml,PHN2ZyB4bWxuczpjYz0iaHR0cDovL2NyZWF0aXZlY29tbW9ucy5vcmcvbnMjIiB4bWxuczpkYz0iaHR0cDovL3B1cmwub3JnL2RjL2VsZW1lbnRzLzEuMS8iIHhtbG5zOmlua3NjYXBlPSJodHRwOi8vd3d3Lmlua3NjYXBlLm9yZy9uYW1lc3BhY2VzL2lua3NjYXBlIiB4bWxuczpyZGY9Imh0dHA6Ly93d3cudzMub3JnLzE5OTkvMDIvMjItcmRmLXN5bnRheC1ucyMiIHhtbG5zOnNvZGlwb2RpPSJodHRwOi8vc29kaXBvZGkuc291cmNlZm9yZ2UubmV0L0RURC9zb2RpcG9kaS0wLmR0ZCIgeG1sbnM6c3ZnPSJodHRwOi8vd3d3LnczLm9yZy8yMDAwL3N2ZyIgeG1sbnM9Imh0dHA6Ly93d3cudzMub3JnLzIwMDAvc3ZnIiB4bWxuczp4bGluaz0iaHR0cDovL3d3dy53My5vcmcvMTk5OS94bGluayIgdmVyc2lvbj0iMS4xIiBpZD0ic3ZnMjY1OSIgaW5rc2NhcGU6dmVyc2lvbj0iMC45Mi4zICgyNDA1NTQ2LCAyMDE4LTAzLTExKSIgc29kaXBvZGk6ZG9jbmFtZT0ic3VibmV0cy5zdmciIHg9IjBweCIgeT0iMHB4IiB2aWV3Qm94PSIwIDAgMzQuODQgMjEuNjEiIHN0eWxlPSJlbmFibGUtYmFja2dyb3VuZDpuZXcgMCAwIDM0Ljg0IDIxLjYxOyIgeG1sOnNwYWNlPSJwcmVzZXJ2ZSI+JiN4YTs8c29kaXBvZGk6bmFtZWR2aWV3IGJvcmRlcmNvbG9yPSIjNjY2NjY2IiBib3JkZXJvcGFjaXR5PSIxIiBmaXQtbWFyZ2luLWJvdHRvbT0iMCIgZml0LW1hcmdpbi1sZWZ0PSIwIiBmaXQtbWFyZ2luLXJpZ2h0PSIwIiBmaXQtbWFyZ2luLXRvcD0iMCIgZ3JpZHRvbGVyYW5jZT0iMTAiIGd1aWRldG9sZXJhbmNlPSIxMCIgaWQ9Im5hbWVkdmlldzI2NjEiIGlua3NjYXBlOmN1cnJlbnQtbGF5ZXI9InN2ZzI2NTkiIGlua3NjYXBlOmN4PSIyMy4yMjU5OTEiIGlua3NjYXBlOmN5PSIxNC40MDc5OTQiIGlua3NjYXBlOnBhZ2VvcGFjaXR5PSIwIiBpbmtzY2FwZTpwYWdlc2hhZG93PSIyIiBpbmtzY2FwZTp3aW5kb3ctaGVpZ2h0PSIxMDE3IiBpbmtzY2FwZTp3aW5kb3ctbWF4aW1pemVkPSIxIiBpbmtzY2FwZTp3aW5kb3ctd2lkdGg9IjE5MjAiIGlua3NjYXBlOndpbmRvdy14PSItOCIgaW5rc2NhcGU6d2luZG93LXk9Ii04IiBpbmtzY2FwZTp6b29tPSIzMC4wOTMwMzMiIG9iamVjdHRvbGVyYW5jZT0iMTAiIHBhZ2Vjb2xvcj0iI2ZmZmZmZiIgc2hvd2dyaWQ9ImZhbHNlIj4mI3hhOwk8L3NvZGlwb2RpOm5hbWVkdmlldz4mI3hhOzxnIGlkPSJnMjY1NyIgdHJhbnNmb3JtPSJ0cmFuc2xhdGUoLTQuMjMzMTc0OWUtNSkiPiYjeGE7CTx0aXRsZSBpZD0idGl0bGUyNjM3Ij5QYWdlLTE8L3RpdGxlPiYjeGE7CTxnIGlkPSJncm91cDk1MjItMSI+JiN4YTsJCTx0aXRsZSBpZD0idGl0bGUyNjM5Ij5TdWJuZXRzPC90aXRsZT4mI3hhOwkJPGcgaWQ9InNoYXBlOTUyMy0yIiB0cmFuc2Zvcm09InRyYW5zbGF0ZSgyMi42MTMpIj4mI3hhOwkJCTx0aXRsZSBpZD0idGl0bGUyNjQxIj5TaGVldC45NTIzPC90aXRsZT4mI3hhOwkJCTxwYXRoIGlkPSJwYXRoMjY0MyIgaW5rc2NhcGU6Y29ubmVjdG9yLWN1cnZhdHVyZT0iMCIgc3R5bGU9ImZpbGw6IzM5OTlDNjsiIGQ9Ik0xMi4yMywxMC42OEw5Ljg0LDguMjlMMS4zOSwwTDAsMS4yNmw5LjU4LDkuNDIgICAgIEwwLDIwLjM1bDEuMzksMS4yNmw4LjQ1LTguM0wxMi4yMywxMC42OHoiLz4mI3hhOwkJPC9nPiYjeGE7CQk8ZyBpZD0ic2hhcGU5NTI0LTQiPiYjeGE7CQkJPHRpdGxlIGlkPSJ0aXRsZTI2NDYiPlNoZWV0Ljk1MjQ8L3RpdGxlPiYjeGE7CQkJPHBhdGggaWQ9InBhdGgyNjQ4IiBpbmtzY2FwZTpjb25uZWN0b3ItY3VydmF0dXJlPSIwIiBzdHlsZT0iZmlsbDojMzk5OUM2OyIgZD0iTTAsMTAuNjhsMi4zOS0yLjM5TDEwLjg0LDBsMS4zOSwxLjI2bC05LjU4LDkuNDIgICAgIGw5LjU4LDkuNjdsLTEuMzksMS4yNmwtOC40NS04LjNMMCwxMC42OHoiLz4mI3hhOwkJPC9nPiYjeGE7CQk8ZyBpZD0ic2hhcGU5NTI1LTYiIHRyYW5zZm9ybT0idHJhbnNsYXRlKDE0Ljg2ODUsLTguNTMxOTcpIj4mI3hhOwkJCTx0aXRsZSBpZD0idGl0bGUyNjUxIj5TaGVldC45NTI1PC90aXRsZT4mI3hhOwkJCTxwYXRoIGlkPSJwYXRoMjY1MyIgaW5rc2NhcGU6Y29ubmVjdG9yLWN1cnZhdHVyZT0iMCIgc3R5bGU9ImZpbGw6IzdGQkEwMDsiIGQ9Ik00LjkxLDE5LjIxYzAsMS4zOC0xLjEzLDIuNC0yLjM5LDIuNCAgICAgUzAsMjAuNDYsMCwxOS4yMWMwLTEuMjYsMS4xMy0yLjM4LDIuNTItMi4zOFM0LjkxLDE3Ljk1LDQuOTEsMTkuMjF6Ii8+JiN4YTsJCTwvZz4mI3hhOwk8L2c+JiN4YTs8L2c+JiN4YTs8L3N2Zz4=;" vertex="1" parent="1">
          <mxGeometry x="60.089999999999975" y="130" width="30" height="18.85" as="geometry" />
        </mxCell>
        <mxCell id="OnrqargmPEVyfRrU8eS--15" value="" style="shape=image;verticalLabelPosition=bottom;labelBackgroundColor=#ffffff;verticalAlign=top;aspect=fixed;imageAspect=0;image=data:image/svg+xml,PHN2ZyB4bWxuczpjYz0iaHR0cDovL2NyZWF0aXZlY29tbW9ucy5vcmcvbnMjIiB4bWxuczpkYz0iaHR0cDovL3B1cmwub3JnL2RjL2VsZW1lbnRzLzEuMS8iIHhtbG5zOmlua3NjYXBlPSJodHRwOi8vd3d3Lmlua3NjYXBlLm9yZy9uYW1lc3BhY2VzL2lua3NjYXBlIiB4bWxuczpyZGY9Imh0dHA6Ly93d3cudzMub3JnLzE5OTkvMDIvMjItcmRmLXN5bnRheC1ucyMiIHhtbG5zOnNvZGlwb2RpPSJodHRwOi8vc29kaXBvZGkuc291cmNlZm9yZ2UubmV0L0RURC9zb2RpcG9kaS0wLmR0ZCIgeG1sbnM6c3ZnPSJodHRwOi8vd3d3LnczLm9yZy8yMDAwL3N2ZyIgeG1sbnM9Imh0dHA6Ly93d3cudzMub3JnLzIwMDAvc3ZnIiB4bWxuczp4bGluaz0iaHR0cDovL3d3dy53My5vcmcvMTk5OS94bGluayIgdmVyc2lvbj0iMS4xIiBpZD0ic3ZnMjY1OSIgaW5rc2NhcGU6dmVyc2lvbj0iMC45Mi4zICgyNDA1NTQ2LCAyMDE4LTAzLTExKSIgc29kaXBvZGk6ZG9jbmFtZT0ic3VibmV0cy5zdmciIHg9IjBweCIgeT0iMHB4IiB2aWV3Qm94PSIwIDAgMzQuODQgMjEuNjEiIHN0eWxlPSJlbmFibGUtYmFja2dyb3VuZDpuZXcgMCAwIDM0Ljg0IDIxLjYxOyIgeG1sOnNwYWNlPSJwcmVzZXJ2ZSI+JiN4YTs8c29kaXBvZGk6bmFtZWR2aWV3IGJvcmRlcmNvbG9yPSIjNjY2NjY2IiBib3JkZXJvcGFjaXR5PSIxIiBmaXQtbWFyZ2luLWJvdHRvbT0iMCIgZml0LW1hcmdpbi1sZWZ0PSIwIiBmaXQtbWFyZ2luLXJpZ2h0PSIwIiBmaXQtbWFyZ2luLXRvcD0iMCIgZ3JpZHRvbGVyYW5jZT0iMTAiIGd1aWRldG9sZXJhbmNlPSIxMCIgaWQ9Im5hbWVkdmlldzI2NjEiIGlua3NjYXBlOmN1cnJlbnQtbGF5ZXI9InN2ZzI2NTkiIGlua3NjYXBlOmN4PSIyMy4yMjU5OTEiIGlua3NjYXBlOmN5PSIxNC40MDc5OTQiIGlua3NjYXBlOnBhZ2VvcGFjaXR5PSIwIiBpbmtzY2FwZTpwYWdlc2hhZG93PSIyIiBpbmtzY2FwZTp3aW5kb3ctaGVpZ2h0PSIxMDE3IiBpbmtzY2FwZTp3aW5kb3ctbWF4aW1pemVkPSIxIiBpbmtzY2FwZTp3aW5kb3ctd2lkdGg9IjE5MjAiIGlua3NjYXBlOndpbmRvdy14PSItOCIgaW5rc2NhcGU6d2luZG93LXk9Ii04IiBpbmtzY2FwZTp6b29tPSIzMC4wOTMwMzMiIG9iamVjdHRvbGVyYW5jZT0iMTAiIHBhZ2Vjb2xvcj0iI2ZmZmZmZiIgc2hvd2dyaWQ9ImZhbHNlIj4mI3hhOwk8L3NvZGlwb2RpOm5hbWVkdmlldz4mI3hhOzxnIGlkPSJnMjY1NyIgdHJhbnNmb3JtPSJ0cmFuc2xhdGUoLTQuMjMzMTc0OWUtNSkiPiYjeGE7CTx0aXRsZSBpZD0idGl0bGUyNjM3Ij5QYWdlLTE8L3RpdGxlPiYjeGE7CTxnIGlkPSJncm91cDk1MjItMSI+JiN4YTsJCTx0aXRsZSBpZD0idGl0bGUyNjM5Ij5TdWJuZXRzPC90aXRsZT4mI3hhOwkJPGcgaWQ9InNoYXBlOTUyMy0yIiB0cmFuc2Zvcm09InRyYW5zbGF0ZSgyMi42MTMpIj4mI3hhOwkJCTx0aXRsZSBpZD0idGl0bGUyNjQxIj5TaGVldC45NTIzPC90aXRsZT4mI3hhOwkJCTxwYXRoIGlkPSJwYXRoMjY0MyIgaW5rc2NhcGU6Y29ubmVjdG9yLWN1cnZhdHVyZT0iMCIgc3R5bGU9ImZpbGw6IzM5OTlDNjsiIGQ9Ik0xMi4yMywxMC42OEw5Ljg0LDguMjlMMS4zOSwwTDAsMS4yNmw5LjU4LDkuNDIgICAgIEwwLDIwLjM1bDEuMzksMS4yNmw4LjQ1LTguM0wxMi4yMywxMC42OHoiLz4mI3hhOwkJPC9nPiYjeGE7CQk8ZyBpZD0ic2hhcGU5NTI0LTQiPiYjeGE7CQkJPHRpdGxlIGlkPSJ0aXRsZTI2NDYiPlNoZWV0Ljk1MjQ8L3RpdGxlPiYjeGE7CQkJPHBhdGggaWQ9InBhdGgyNjQ4IiBpbmtzY2FwZTpjb25uZWN0b3ItY3VydmF0dXJlPSIwIiBzdHlsZT0iZmlsbDojMzk5OUM2OyIgZD0iTTAsMTAuNjhsMi4zOS0yLjM5TDEwLjg0LDBsMS4zOSwxLjI2bC05LjU4LDkuNDIgICAgIGw5LjU4LDkuNjdsLTEuMzksMS4yNmwtOC40NS04LjNMMCwxMC42OHoiLz4mI3hhOwkJPC9nPiYjeGE7CQk8ZyBpZD0ic2hhcGU5NTI1LTYiIHRyYW5zZm9ybT0idHJhbnNsYXRlKDE0Ljg2ODUsLTguNTMxOTcpIj4mI3hhOwkJCTx0aXRsZSBpZD0idGl0bGUyNjUxIj5TaGVldC45NTI1PC90aXRsZT4mI3hhOwkJCTxwYXRoIGlkPSJwYXRoMjY1MyIgaW5rc2NhcGU6Y29ubmVjdG9yLWN1cnZhdHVyZT0iMCIgc3R5bGU9ImZpbGw6IzdGQkEwMDsiIGQ9Ik00LjkxLDE5LjIxYzAsMS4zOC0xLjEzLDIuNC0yLjM5LDIuNCAgICAgUzAsMjAuNDYsMCwxOS4yMWMwLTEuMjYsMS4xMy0yLjM4LDIuNTItMi4zOFM0LjkxLDE3Ljk1LDQuOTEsMTkuMjF6Ii8+JiN4YTsJCTwvZz4mI3hhOwk8L2c+JiN4YTs8L2c+JiN4YTs8L3N2Zz4=;fontStyle=0" vertex="1" parent="1">
          <mxGeometry x="130" y="130" width="30" height="18.85" as="geometry" />
        </mxCell>
        <mxCell id="OnrqargmPEVyfRrU8eS--19" value="Subnet" style="text;html=1;align=center;verticalAlign=top;resizable=0;points=[];autosize=1;strokeColor=none;fontStyle=1" vertex="1" parent="1">
          <mxGeometry x="40.09" y="99" width="60" height="20" as="geometry" />
        </mxCell>
        <mxCell id="OnrqargmPEVyfRrU8eS--21" value="&lt;a title=&quot;https://portal.azure.com/#&quot; href=&quot;https://portal.azure.com/&quot; target=&quot;_blank&quot; tabindex=&quot;-1&quot; style=&quot;box-sizing: border-box ; background-color: rgb(255 , 255 , 255) ; outline-style: none ; color: rgb(98 , 100 , 167) ; font-size: 9px&quot;&gt;&lt;b style=&quot;line-height: 110%&quot;&gt;Gateway&lt;br&gt;subnet&lt;/b&gt;&lt;/a&gt;" style="whiteSpace=wrap;html=1;fillColor=none;verticalAlign=top;" vertex="1" parent="1">
          <mxGeometry x="60.089999999999975" y="140" width="40" height="40" as="geometry" />
        </mxCell>
        <mxCell id="OnrqargmPEVyfRrU8eS--23" style="edgeStyle=orthogonalEdgeStyle;rounded=0;orthogonalLoop=1;jettySize=auto;html=1;exitX=0.5;exitY=1;exitDx=0;exitDy=0;" edge="1" parent="1" source="OnrqargmPEVyfRrU8eS--21" target="OnrqargmPEVyfRrU8eS--21">
          <mxGeometry relative="1" as="geometry" />
        </mxCell>
        <mxCell id="OnrqargmPEVyfRrU8eS--25" value="&lt;a title=&quot;https://portal.azure.com/#&quot; href=&quot;https://portal.azure.com/&quot; target=&quot;_blank&quot; tabindex=&quot;-1&quot; style=&quot;box-sizing: border-box ; background-color: rgb(255 , 255 , 255) ; outline-style: none ; color: rgb(98 , 100 , 167) ; font-family: &amp;#34;segoe ui&amp;#34; , , &amp;#34;apple color emoji&amp;#34; , &amp;#34;segoe ui emoji&amp;#34; , sans-serif ; font-size: 10px&quot;&gt;&lt;b&gt;PA_&lt;br&gt;HA&lt;/b&gt;&lt;/a&gt;" style="whiteSpace=wrap;html=1;fillColor=none;verticalAlign=top;" vertex="1" parent="1">
          <mxGeometry x="60.089999999999975" y="260" width="40" height="40" as="geometry" />
        </mxCell>
        <mxCell id="OnrqargmPEVyfRrU8eS--26" value="&lt;a title=&quot;https://portal.azure.com/#&quot; href=&quot;https://portal.azure.com/&quot; target=&quot;_blank&quot; tabindex=&quot;-1&quot; style=&quot;box-sizing: border-box ; background-color: rgb(255 , 255 , 255) ; outline-style: none ; color: rgb(98 , 100 , 167) ; font-family: &amp;#34;segoe ui&amp;#34; , , &amp;#34;apple color emoji&amp;#34; , &amp;#34;segoe ui emoji&amp;#34; , sans-serif ; font-size: 9px&quot;&gt;&lt;b&gt;PA_&lt;br&gt;External&lt;/b&gt;&lt;/a&gt;" style="whiteSpace=wrap;html=1;fillColor=none;verticalAlign=top;" vertex="1" parent="1">
          <mxGeometry x="130" y="200" width="40" height="40" as="geometry" />
        </mxCell>
        <mxCell id="OnrqargmPEVyfRrU8eS--27" value="&lt;a title=&quot;https://portal.azure.com/#&quot; href=&quot;https://portal.azure.com/&quot; target=&quot;_blank&quot; tabindex=&quot;-1&quot; style=&quot;box-sizing: border-box ; background-color: rgb(255 , 255 , 255) ; outline-style: none ; color: rgb(98 , 100 , 167) ; font-family: &amp;#34;segoe ui&amp;#34; , , &amp;#34;apple color emoji&amp;#34; , &amp;#34;segoe ui emoji&amp;#34; , sans-serif ; font-size: 9px&quot;&gt;&lt;b&gt;PA_&lt;br&gt;Internal&lt;/b&gt;&lt;/a&gt;" style="whiteSpace=wrap;html=1;fillColor=none;verticalAlign=top;" vertex="1" parent="1">
          <mxGeometry x="60.089999999999975" y="200" width="40" height="40" as="geometry" />
        </mxCell>
        <mxCell id="OnrqargmPEVyfRrU8eS--28" value="&lt;a title=&quot;https://portal.azure.com/#&quot; href=&quot;https://portal.azure.com/&quot; target=&quot;_blank&quot; tabindex=&quot;-1&quot; style=&quot;box-sizing: border-box ; background-color: rgb(255 , 255 , 255) ; outline-style: none ; color: rgb(98 , 100 , 167) ; font-family: &amp;#34;segoe ui&amp;#34; , , &amp;#34;apple color emoji&amp;#34; , &amp;#34;segoe ui emoji&amp;#34; , sans-serif ; font-size: 9px&quot;&gt;&lt;b&gt;Gateway&lt;br&gt;Subnet&lt;/b&gt;&lt;/a&gt;" style="whiteSpace=wrap;html=1;fillColor=none;verticalAlign=top;" vertex="1" parent="1">
          <mxGeometry x="130" y="140" width="40" height="40" as="geometry" />
        </mxCell>
        <mxCell id="OnrqargmPEVyfRrU8eS--30" value="&lt;a title=&quot;https://portal.azure.com/#&quot; href=&quot;https://portal.azure.com/&quot; target=&quot;_blank&quot; tabindex=&quot;-1&quot; style=&quot;box-sizing: border-box ; background-color: rgb(255 , 255 , 255) ; outline-style: none ; color: rgb(98 , 100 , 167) ; font-family: &amp;#34;segoe ui&amp;#34; , , &amp;#34;apple color emoji&amp;#34; , &amp;#34;segoe ui emoji&amp;#34; , sans-serif ; font-size: 9px&quot;&gt;&lt;b&gt;PA_&lt;br&gt;MGMT&lt;/b&gt;&lt;/a&gt;" style="whiteSpace=wrap;html=1;fillColor=none;verticalAlign=top;" vertex="1" parent="1">
          <mxGeometry x="130" y="260" width="40" height="40" as="geometry" />
        </mxCell>
        <mxCell id="OnrqargmPEVyfRrU8eS--33" value="" style="shape=image;verticalLabelPosition=bottom;labelBackgroundColor=#ffffff;verticalAlign=top;aspect=fixed;imageAspect=0;image=data:image/svg+xml,PHN2ZyB4bWxuczpjYz0iaHR0cDovL2NyZWF0aXZlY29tbW9ucy5vcmcvbnMjIiB4bWxuczpkYz0iaHR0cDovL3B1cmwub3JnL2RjL2VsZW1lbnRzLzEuMS8iIHhtbG5zOmlua3NjYXBlPSJodHRwOi8vd3d3Lmlua3NjYXBlLm9yZy9uYW1lc3BhY2VzL2lua3NjYXBlIiB4bWxuczpyZGY9Imh0dHA6Ly93d3cudzMub3JnLzE5OTkvMDIvMjItcmRmLXN5bnRheC1ucyMiIHhtbG5zOnNvZGlwb2RpPSJodHRwOi8vc29kaXBvZGkuc291cmNlZm9yZ2UubmV0L0RURC9zb2RpcG9kaS0wLmR0ZCIgeG1sbnM6c3ZnPSJodHRwOi8vd3d3LnczLm9yZy8yMDAwL3N2ZyIgeG1sbnM9Imh0dHA6Ly93d3cudzMub3JnLzIwMDAvc3ZnIiB4bWxuczp4bGluaz0iaHR0cDovL3d3dy53My5vcmcvMTk5OS94bGluayIgdmVyc2lvbj0iMS4xIiBpZD0ic3ZnMjY1OSIgaW5rc2NhcGU6dmVyc2lvbj0iMC45Mi4zICgyNDA1NTQ2LCAyMDE4LTAzLTExKSIgc29kaXBvZGk6ZG9jbmFtZT0ic3VibmV0cy5zdmciIHg9IjBweCIgeT0iMHB4IiB2aWV3Qm94PSIwIDAgMzQuODQgMjEuNjEiIHN0eWxlPSJlbmFibGUtYmFja2dyb3VuZDpuZXcgMCAwIDM0Ljg0IDIxLjYxOyIgeG1sOnNwYWNlPSJwcmVzZXJ2ZSI+JiN4YTs8c29kaXBvZGk6bmFtZWR2aWV3IGJvcmRlcmNvbG9yPSIjNjY2NjY2IiBib3JkZXJvcGFjaXR5PSIxIiBmaXQtbWFyZ2luLWJvdHRvbT0iMCIgZml0LW1hcmdpbi1sZWZ0PSIwIiBmaXQtbWFyZ2luLXJpZ2h0PSIwIiBmaXQtbWFyZ2luLXRvcD0iMCIgZ3JpZHRvbGVyYW5jZT0iMTAiIGd1aWRldG9sZXJhbmNlPSIxMCIgaWQ9Im5hbWVkdmlldzI2NjEiIGlua3NjYXBlOmN1cnJlbnQtbGF5ZXI9InN2ZzI2NTkiIGlua3NjYXBlOmN4PSIyMy4yMjU5OTEiIGlua3NjYXBlOmN5PSIxNC40MDc5OTQiIGlua3NjYXBlOnBhZ2VvcGFjaXR5PSIwIiBpbmtzY2FwZTpwYWdlc2hhZG93PSIyIiBpbmtzY2FwZTp3aW5kb3ctaGVpZ2h0PSIxMDE3IiBpbmtzY2FwZTp3aW5kb3ctbWF4aW1pemVkPSIxIiBpbmtzY2FwZTp3aW5kb3ctd2lkdGg9IjE5MjAiIGlua3NjYXBlOndpbmRvdy14PSItOCIgaW5rc2NhcGU6d2luZG93LXk9Ii04IiBpbmtzY2FwZTp6b29tPSIzMC4wOTMwMzMiIG9iamVjdHRvbGVyYW5jZT0iMTAiIHBhZ2Vjb2xvcj0iI2ZmZmZmZiIgc2hvd2dyaWQ9ImZhbHNlIj4mI3hhOwk8L3NvZGlwb2RpOm5hbWVkdmlldz4mI3hhOzxnIGlkPSJnMjY1NyIgdHJhbnNmb3JtPSJ0cmFuc2xhdGUoLTQuMjMzMTc0OWUtNSkiPiYjeGE7CTx0aXRsZSBpZD0idGl0bGUyNjM3Ij5QYWdlLTE8L3RpdGxlPiYjeGE7CTxnIGlkPSJncm91cDk1MjItMSI+JiN4YTsJCTx0aXRsZSBpZD0idGl0bGUyNjM5Ij5TdWJuZXRzPC90aXRsZT4mI3hhOwkJPGcgaWQ9InNoYXBlOTUyMy0yIiB0cmFuc2Zvcm09InRyYW5zbGF0ZSgyMi42MTMpIj4mI3hhOwkJCTx0aXRsZSBpZD0idGl0bGUyNjQxIj5TaGVldC45NTIzPC90aXRsZT4mI3hhOwkJCTxwYXRoIGlkPSJwYXRoMjY0MyIgaW5rc2NhcGU6Y29ubmVjdG9yLWN1cnZhdHVyZT0iMCIgc3R5bGU9ImZpbGw6IzM5OTlDNjsiIGQ9Ik0xMi4yMywxMC42OEw5Ljg0LDguMjlMMS4zOSwwTDAsMS4yNmw5LjU4LDkuNDIgICAgIEwwLDIwLjM1bDEuMzksMS4yNmw4LjQ1LTguM0wxMi4yMywxMC42OHoiLz4mI3hhOwkJPC9nPiYjeGE7CQk8ZyBpZD0ic2hhcGU5NTI0LTQiPiYjeGE7CQkJPHRpdGxlIGlkPSJ0aXRsZTI2NDYiPlNoZWV0Ljk1MjQ8L3RpdGxlPiYjeGE7CQkJPHBhdGggaWQ9InBhdGgyNjQ4IiBpbmtzY2FwZTpjb25uZWN0b3ItY3VydmF0dXJlPSIwIiBzdHlsZT0iZmlsbDojMzk5OUM2OyIgZD0iTTAsMTAuNjhsMi4zOS0yLjM5TDEwLjg0LDBsMS4zOSwxLjI2bC05LjU4LDkuNDIgICAgIGw5LjU4LDkuNjdsLTEuMzksMS4yNmwtOC40NS04LjNMMCwxMC42OHoiLz4mI3hhOwkJPC9nPiYjeGE7CQk8ZyBpZD0ic2hhcGU5NTI1LTYiIHRyYW5zZm9ybT0idHJhbnNsYXRlKDE0Ljg2ODUsLTguNTMxOTcpIj4mI3hhOwkJCTx0aXRsZSBpZD0idGl0bGUyNjUxIj5TaGVldC45NTI1PC90aXRsZT4mI3hhOwkJCTxwYXRoIGlkPSJwYXRoMjY1MyIgaW5rc2NhcGU6Y29ubmVjdG9yLWN1cnZhdHVyZT0iMCIgc3R5bGU9ImZpbGw6IzdGQkEwMDsiIGQ9Ik00LjkxLDE5LjIxYzAsMS4zOC0xLjEzLDIuNC0yLjM5LDIuNCAgICAgUzAsMjAuNDYsMCwxOS4yMWMwLTEuMjYsMS4xMy0yLjM4LDIuNTItMi4zOFM0LjkxLDE3Ljk1LDQuOTEsMTkuMjF6Ii8+JiN4YTsJCTwvZz4mI3hhOwk8L2c+JiN4YTs8L2c+JiN4YTs8L3N2Zz4=;fontStyle=0" vertex="1" parent="1">
          <mxGeometry x="130" y="190" width="30" height="18.85" as="geometry" />
        </mxCell>
        <mxCell id="OnrqargmPEVyfRrU8eS--34" value="" style="shape=image;verticalLabelPosition=bottom;labelBackgroundColor=#ffffff;verticalAlign=top;aspect=fixed;imageAspect=0;image=data:image/svg+xml,PHN2ZyB4bWxuczpjYz0iaHR0cDovL2NyZWF0aXZlY29tbW9ucy5vcmcvbnMjIiB4bWxuczpkYz0iaHR0cDovL3B1cmwub3JnL2RjL2VsZW1lbnRzLzEuMS8iIHhtbG5zOmlua3NjYXBlPSJodHRwOi8vd3d3Lmlua3NjYXBlLm9yZy9uYW1lc3BhY2VzL2lua3NjYXBlIiB4bWxuczpyZGY9Imh0dHA6Ly93d3cudzMub3JnLzE5OTkvMDIvMjItcmRmLXN5bnRheC1ucyMiIHhtbG5zOnNvZGlwb2RpPSJodHRwOi8vc29kaXBvZGkuc291cmNlZm9yZ2UubmV0L0RURC9zb2RpcG9kaS0wLmR0ZCIgeG1sbnM6c3ZnPSJodHRwOi8vd3d3LnczLm9yZy8yMDAwL3N2ZyIgeG1sbnM9Imh0dHA6Ly93d3cudzMub3JnLzIwMDAvc3ZnIiB4bWxuczp4bGluaz0iaHR0cDovL3d3dy53My5vcmcvMTk5OS94bGluayIgdmVyc2lvbj0iMS4xIiBpZD0ic3ZnMjY1OSIgaW5rc2NhcGU6dmVyc2lvbj0iMC45Mi4zICgyNDA1NTQ2LCAyMDE4LTAzLTExKSIgc29kaXBvZGk6ZG9jbmFtZT0ic3VibmV0cy5zdmciIHg9IjBweCIgeT0iMHB4IiB2aWV3Qm94PSIwIDAgMzQuODQgMjEuNjEiIHN0eWxlPSJlbmFibGUtYmFja2dyb3VuZDpuZXcgMCAwIDM0Ljg0IDIxLjYxOyIgeG1sOnNwYWNlPSJwcmVzZXJ2ZSI+JiN4YTs8c29kaXBvZGk6bmFtZWR2aWV3IGJvcmRlcmNvbG9yPSIjNjY2NjY2IiBib3JkZXJvcGFjaXR5PSIxIiBmaXQtbWFyZ2luLWJvdHRvbT0iMCIgZml0LW1hcmdpbi1sZWZ0PSIwIiBmaXQtbWFyZ2luLXJpZ2h0PSIwIiBmaXQtbWFyZ2luLXRvcD0iMCIgZ3JpZHRvbGVyYW5jZT0iMTAiIGd1aWRldG9sZXJhbmNlPSIxMCIgaWQ9Im5hbWVkdmlldzI2NjEiIGlua3NjYXBlOmN1cnJlbnQtbGF5ZXI9InN2ZzI2NTkiIGlua3NjYXBlOmN4PSIyMy4yMjU5OTEiIGlua3NjYXBlOmN5PSIxNC40MDc5OTQiIGlua3NjYXBlOnBhZ2VvcGFjaXR5PSIwIiBpbmtzY2FwZTpwYWdlc2hhZG93PSIyIiBpbmtzY2FwZTp3aW5kb3ctaGVpZ2h0PSIxMDE3IiBpbmtzY2FwZTp3aW5kb3ctbWF4aW1pemVkPSIxIiBpbmtzY2FwZTp3aW5kb3ctd2lkdGg9IjE5MjAiIGlua3NjYXBlOndpbmRvdy14PSItOCIgaW5rc2NhcGU6d2luZG93LXk9Ii04IiBpbmtzY2FwZTp6b29tPSIzMC4wOTMwMzMiIG9iamVjdHRvbGVyYW5jZT0iMTAiIHBhZ2Vjb2xvcj0iI2ZmZmZmZiIgc2hvd2dyaWQ9ImZhbHNlIj4mI3hhOwk8L3NvZGlwb2RpOm5hbWVkdmlldz4mI3hhOzxnIGlkPSJnMjY1NyIgdHJhbnNmb3JtPSJ0cmFuc2xhdGUoLTQuMjMzMTc0OWUtNSkiPiYjeGE7CTx0aXRsZSBpZD0idGl0bGUyNjM3Ij5QYWdlLTE8L3RpdGxlPiYjeGE7CTxnIGlkPSJncm91cDk1MjItMSI+JiN4YTsJCTx0aXRsZSBpZD0idGl0bGUyNjM5Ij5TdWJuZXRzPC90aXRsZT4mI3hhOwkJPGcgaWQ9InNoYXBlOTUyMy0yIiB0cmFuc2Zvcm09InRyYW5zbGF0ZSgyMi42MTMpIj4mI3hhOwkJCTx0aXRsZSBpZD0idGl0bGUyNjQxIj5TaGVldC45NTIzPC90aXRsZT4mI3hhOwkJCTxwYXRoIGlkPSJwYXRoMjY0MyIgaW5rc2NhcGU6Y29ubmVjdG9yLWN1cnZhdHVyZT0iMCIgc3R5bGU9ImZpbGw6IzM5OTlDNjsiIGQ9Ik0xMi4yMywxMC42OEw5Ljg0LDguMjlMMS4zOSwwTDAsMS4yNmw5LjU4LDkuNDIgICAgIEwwLDIwLjM1bDEuMzksMS4yNmw4LjQ1LTguM0wxMi4yMywxMC42OHoiLz4mI3hhOwkJPC9nPiYjeGE7CQk8ZyBpZD0ic2hhcGU5NTI0LTQiPiYjeGE7CQkJPHRpdGxlIGlkPSJ0aXRsZTI2NDYiPlNoZWV0Ljk1MjQ8L3RpdGxlPiYjeGE7CQkJPHBhdGggaWQ9InBhdGgyNjQ4IiBpbmtzY2FwZTpjb25uZWN0b3ItY3VydmF0dXJlPSIwIiBzdHlsZT0iZmlsbDojMzk5OUM2OyIgZD0iTTAsMTAuNjhsMi4zOS0yLjM5TDEwLjg0LDBsMS4zOSwxLjI2bC05LjU4LDkuNDIgICAgIGw5LjU4LDkuNjdsLTEuMzksMS4yNmwtOC40NS04LjNMMCwxMC42OHoiLz4mI3hhOwkJPC9nPiYjeGE7CQk8ZyBpZD0ic2hhcGU5NTI1LTYiIHRyYW5zZm9ybT0idHJhbnNsYXRlKDE0Ljg2ODUsLTguNTMxOTcpIj4mI3hhOwkJCTx0aXRsZSBpZD0idGl0bGUyNjUxIj5TaGVldC45NTI1PC90aXRsZT4mI3hhOwkJCTxwYXRoIGlkPSJwYXRoMjY1MyIgaW5rc2NhcGU6Y29ubmVjdG9yLWN1cnZhdHVyZT0iMCIgc3R5bGU9ImZpbGw6IzdGQkEwMDsiIGQ9Ik00LjkxLDE5LjIxYzAsMS4zOC0xLjEzLDIuNC0yLjM5LDIuNCAgICAgUzAsMjAuNDYsMCwxOS4yMWMwLTEuMjYsMS4xMy0yLjM4LDIuNTItMi4zOFM0LjkxLDE3Ljk1LDQuOTEsMTkuMjF6Ii8+JiN4YTsJCTwvZz4mI3hhOwk8L2c+JiN4YTs8L2c+JiN4YTs8L3N2Zz4=;fontStyle=0" vertex="1" parent="1">
          <mxGeometry x="55.09" y="190" width="30" height="18.85" as="geometry" />
        </mxCell>
        <mxCell id="OnrqargmPEVyfRrU8eS--35" value="" style="shape=image;verticalLabelPosition=bottom;labelBackgroundColor=#ffffff;verticalAlign=top;aspect=fixed;imageAspect=0;image=data:image/svg+xml,PHN2ZyB4bWxuczpjYz0iaHR0cDovL2NyZWF0aXZlY29tbW9ucy5vcmcvbnMjIiB4bWxuczpkYz0iaHR0cDovL3B1cmwub3JnL2RjL2VsZW1lbnRzLzEuMS8iIHhtbG5zOmlua3NjYXBlPSJodHRwOi8vd3d3Lmlua3NjYXBlLm9yZy9uYW1lc3BhY2VzL2lua3NjYXBlIiB4bWxuczpyZGY9Imh0dHA6Ly93d3cudzMub3JnLzE5OTkvMDIvMjItcmRmLXN5bnRheC1ucyMiIHhtbG5zOnNvZGlwb2RpPSJodHRwOi8vc29kaXBvZGkuc291cmNlZm9yZ2UubmV0L0RURC9zb2RpcG9kaS0wLmR0ZCIgeG1sbnM6c3ZnPSJodHRwOi8vd3d3LnczLm9yZy8yMDAwL3N2ZyIgeG1sbnM9Imh0dHA6Ly93d3cudzMub3JnLzIwMDAvc3ZnIiB4bWxuczp4bGluaz0iaHR0cDovL3d3dy53My5vcmcvMTk5OS94bGluayIgdmVyc2lvbj0iMS4xIiBpZD0ic3ZnMjY1OSIgaW5rc2NhcGU6dmVyc2lvbj0iMC45Mi4zICgyNDA1NTQ2LCAyMDE4LTAzLTExKSIgc29kaXBvZGk6ZG9jbmFtZT0ic3VibmV0cy5zdmciIHg9IjBweCIgeT0iMHB4IiB2aWV3Qm94PSIwIDAgMzQuODQgMjEuNjEiIHN0eWxlPSJlbmFibGUtYmFja2dyb3VuZDpuZXcgMCAwIDM0Ljg0IDIxLjYxOyIgeG1sOnNwYWNlPSJwcmVzZXJ2ZSI+JiN4YTs8c29kaXBvZGk6bmFtZWR2aWV3IGJvcmRlcmNvbG9yPSIjNjY2NjY2IiBib3JkZXJvcGFjaXR5PSIxIiBmaXQtbWFyZ2luLWJvdHRvbT0iMCIgZml0LW1hcmdpbi1sZWZ0PSIwIiBmaXQtbWFyZ2luLXJpZ2h0PSIwIiBmaXQtbWFyZ2luLXRvcD0iMCIgZ3JpZHRvbGVyYW5jZT0iMTAiIGd1aWRldG9sZXJhbmNlPSIxMCIgaWQ9Im5hbWVkdmlldzI2NjEiIGlua3NjYXBlOmN1cnJlbnQtbGF5ZXI9InN2ZzI2NTkiIGlua3NjYXBlOmN4PSIyMy4yMjU5OTEiIGlua3NjYXBlOmN5PSIxNC40MDc5OTQiIGlua3NjYXBlOnBhZ2VvcGFjaXR5PSIwIiBpbmtzY2FwZTpwYWdlc2hhZG93PSIyIiBpbmtzY2FwZTp3aW5kb3ctaGVpZ2h0PSIxMDE3IiBpbmtzY2FwZTp3aW5kb3ctbWF4aW1pemVkPSIxIiBpbmtzY2FwZTp3aW5kb3ctd2lkdGg9IjE5MjAiIGlua3NjYXBlOndpbmRvdy14PSItOCIgaW5rc2NhcGU6d2luZG93LXk9Ii04IiBpbmtzY2FwZTp6b29tPSIzMC4wOTMwMzMiIG9iamVjdHRvbGVyYW5jZT0iMTAiIHBhZ2Vjb2xvcj0iI2ZmZmZmZiIgc2hvd2dyaWQ9ImZhbHNlIj4mI3hhOwk8L3NvZGlwb2RpOm5hbWVkdmlldz4mI3hhOzxnIGlkPSJnMjY1NyIgdHJhbnNmb3JtPSJ0cmFuc2xhdGUoLTQuMjMzMTc0OWUtNSkiPiYjeGE7CTx0aXRsZSBpZD0idGl0bGUyNjM3Ij5QYWdlLTE8L3RpdGxlPiYjeGE7CTxnIGlkPSJncm91cDk1MjItMSI+JiN4YTsJCTx0aXRsZSBpZD0idGl0bGUyNjM5Ij5TdWJuZXRzPC90aXRsZT4mI3hhOwkJPGcgaWQ9InNoYXBlOTUyMy0yIiB0cmFuc2Zvcm09InRyYW5zbGF0ZSgyMi42MTMpIj4mI3hhOwkJCTx0aXRsZSBpZD0idGl0bGUyNjQxIj5TaGVldC45NTIzPC90aXRsZT4mI3hhOwkJCTxwYXRoIGlkPSJwYXRoMjY0MyIgaW5rc2NhcGU6Y29ubmVjdG9yLWN1cnZhdHVyZT0iMCIgc3R5bGU9ImZpbGw6IzM5OTlDNjsiIGQ9Ik0xMi4yMywxMC42OEw5Ljg0LDguMjlMMS4zOSwwTDAsMS4yNmw5LjU4LDkuNDIgICAgIEwwLDIwLjM1bDEuMzksMS4yNmw4LjQ1LTguM0wxMi4yMywxMC42OHoiLz4mI3hhOwkJPC9nPiYjeGE7CQk8ZyBpZD0ic2hhcGU5NTI0LTQiPiYjeGE7CQkJPHRpdGxlIGlkPSJ0aXRsZTI2NDYiPlNoZWV0Ljk1MjQ8L3RpdGxlPiYjeGE7CQkJPHBhdGggaWQ9InBhdGgyNjQ4IiBpbmtzY2FwZTpjb25uZWN0b3ItY3VydmF0dXJlPSIwIiBzdHlsZT0iZmlsbDojMzk5OUM2OyIgZD0iTTAsMTAuNjhsMi4zOS0yLjM5TDEwLjg0LDBsMS4zOSwxLjI2bC05LjU4LDkuNDIgICAgIGw5LjU4LDkuNjdsLTEuMzksMS4yNmwtOC40NS04LjNMMCwxMC42OHoiLz4mI3hhOwkJPC9nPiYjeGE7CQk8ZyBpZD0ic2hhcGU5NTI1LTYiIHRyYW5zZm9ybT0idHJhbnNsYXRlKDE0Ljg2ODUsLTguNTMxOTcpIj4mI3hhOwkJCTx0aXRsZSBpZD0idGl0bGUyNjUxIj5TaGVldC45NTI1PC90aXRsZT4mI3hhOwkJCTxwYXRoIGlkPSJwYXRoMjY1MyIgaW5rc2NhcGU6Y29ubmVjdG9yLWN1cnZhdHVyZT0iMCIgc3R5bGU9ImZpbGw6IzdGQkEwMDsiIGQ9Ik00LjkxLDE5LjIxYzAsMS4zOC0xLjEzLDIuNC0yLjM5LDIuNCAgICAgUzAsMjAuNDYsMCwxOS4yMWMwLTEuMjYsMS4xMy0yLjM4LDIuNTItMi4zOFM0LjkxLDE3Ljk1LDQuOTEsMTkuMjF6Ii8+JiN4YTsJCTwvZz4mI3hhOwk8L2c+JiN4YTs8L2c+JiN4YTs8L3N2Zz4=;fontStyle=0" vertex="1" parent="1">
          <mxGeometry x="130" y="250" width="30" height="18.85" as="geometry" />
        </mxCell>
        <mxCell id="OnrqargmPEVyfRrU8eS--36" value="" style="shape=image;verticalLabelPosition=bottom;labelBackgroundColor=#ffffff;verticalAlign=top;aspect=fixed;imageAspect=0;image=data:image/svg+xml,PHN2ZyB4bWxuczpjYz0iaHR0cDovL2NyZWF0aXZlY29tbW9ucy5vcmcvbnMjIiB4bWxuczpkYz0iaHR0cDovL3B1cmwub3JnL2RjL2VsZW1lbnRzLzEuMS8iIHhtbG5zOmlua3NjYXBlPSJodHRwOi8vd3d3Lmlua3NjYXBlLm9yZy9uYW1lc3BhY2VzL2lua3NjYXBlIiB4bWxuczpyZGY9Imh0dHA6Ly93d3cudzMub3JnLzE5OTkvMDIvMjItcmRmLXN5bnRheC1ucyMiIHhtbG5zOnNvZGlwb2RpPSJodHRwOi8vc29kaXBvZGkuc291cmNlZm9yZ2UubmV0L0RURC9zb2RpcG9kaS0wLmR0ZCIgeG1sbnM6c3ZnPSJodHRwOi8vd3d3LnczLm9yZy8yMDAwL3N2ZyIgeG1sbnM9Imh0dHA6Ly93d3cudzMub3JnLzIwMDAvc3ZnIiB4bWxuczp4bGluaz0iaHR0cDovL3d3dy53My5vcmcvMTk5OS94bGluayIgdmVyc2lvbj0iMS4xIiBpZD0ic3ZnMjY1OSIgaW5rc2NhcGU6dmVyc2lvbj0iMC45Mi4zICgyNDA1NTQ2LCAyMDE4LTAzLTExKSIgc29kaXBvZGk6ZG9jbmFtZT0ic3VibmV0cy5zdmciIHg9IjBweCIgeT0iMHB4IiB2aWV3Qm94PSIwIDAgMzQuODQgMjEuNjEiIHN0eWxlPSJlbmFibGUtYmFja2dyb3VuZDpuZXcgMCAwIDM0Ljg0IDIxLjYxOyIgeG1sOnNwYWNlPSJwcmVzZXJ2ZSI+JiN4YTs8c29kaXBvZGk6bmFtZWR2aWV3IGJvcmRlcmNvbG9yPSIjNjY2NjY2IiBib3JkZXJvcGFjaXR5PSIxIiBmaXQtbWFyZ2luLWJvdHRvbT0iMCIgZml0LW1hcmdpbi1sZWZ0PSIwIiBmaXQtbWFyZ2luLXJpZ2h0PSIwIiBmaXQtbWFyZ2luLXRvcD0iMCIgZ3JpZHRvbGVyYW5jZT0iMTAiIGd1aWRldG9sZXJhbmNlPSIxMCIgaWQ9Im5hbWVkdmlldzI2NjEiIGlua3NjYXBlOmN1cnJlbnQtbGF5ZXI9InN2ZzI2NTkiIGlua3NjYXBlOmN4PSIyMy4yMjU5OTEiIGlua3NjYXBlOmN5PSIxNC40MDc5OTQiIGlua3NjYXBlOnBhZ2VvcGFjaXR5PSIwIiBpbmtzY2FwZTpwYWdlc2hhZG93PSIyIiBpbmtzY2FwZTp3aW5kb3ctaGVpZ2h0PSIxMDE3IiBpbmtzY2FwZTp3aW5kb3ctbWF4aW1pemVkPSIxIiBpbmtzY2FwZTp3aW5kb3ctd2lkdGg9IjE5MjAiIGlua3NjYXBlOndpbmRvdy14PSItOCIgaW5rc2NhcGU6d2luZG93LXk9Ii04IiBpbmtzY2FwZTp6b29tPSIzMC4wOTMwMzMiIG9iamVjdHRvbGVyYW5jZT0iMTAiIHBhZ2Vjb2xvcj0iI2ZmZmZmZiIgc2hvd2dyaWQ9ImZhbHNlIj4mI3hhOwk8L3NvZGlwb2RpOm5hbWVkdmlldz4mI3hhOzxnIGlkPSJnMjY1NyIgdHJhbnNmb3JtPSJ0cmFuc2xhdGUoLTQuMjMzMTc0OWUtNSkiPiYjeGE7CTx0aXRsZSBpZD0idGl0bGUyNjM3Ij5QYWdlLTE8L3RpdGxlPiYjeGE7CTxnIGlkPSJncm91cDk1MjItMSI+JiN4YTsJCTx0aXRsZSBpZD0idGl0bGUyNjM5Ij5TdWJuZXRzPC90aXRsZT4mI3hhOwkJPGcgaWQ9InNoYXBlOTUyMy0yIiB0cmFuc2Zvcm09InRyYW5zbGF0ZSgyMi42MTMpIj4mI3hhOwkJCTx0aXRsZSBpZD0idGl0bGUyNjQxIj5TaGVldC45NTIzPC90aXRsZT4mI3hhOwkJCTxwYXRoIGlkPSJwYXRoMjY0MyIgaW5rc2NhcGU6Y29ubmVjdG9yLWN1cnZhdHVyZT0iMCIgc3R5bGU9ImZpbGw6IzM5OTlDNjsiIGQ9Ik0xMi4yMywxMC42OEw5Ljg0LDguMjlMMS4zOSwwTDAsMS4yNmw5LjU4LDkuNDIgICAgIEwwLDIwLjM1bDEuMzksMS4yNmw4LjQ1LTguM0wxMi4yMywxMC42OHoiLz4mI3hhOwkJPC9nPiYjeGE7CQk8ZyBpZD0ic2hhcGU5NTI0LTQiPiYjeGE7CQkJPHRpdGxlIGlkPSJ0aXRsZTI2NDYiPlNoZWV0Ljk1MjQ8L3RpdGxlPiYjeGE7CQkJPHBhdGggaWQ9InBhdGgyNjQ4IiBpbmtzY2FwZTpjb25uZWN0b3ItY3VydmF0dXJlPSIwIiBzdHlsZT0iZmlsbDojMzk5OUM2OyIgZD0iTTAsMTAuNjhsMi4zOS0yLjM5TDEwLjg0LDBsMS4zOSwxLjI2bC05LjU4LDkuNDIgICAgIGw5LjU4LDkuNjdsLTEuMzksMS4yNmwtOC40NS04LjNMMCwxMC42OHoiLz4mI3hhOwkJPC9nPiYjeGE7CQk8ZyBpZD0ic2hhcGU5NTI1LTYiIHRyYW5zZm9ybT0idHJhbnNsYXRlKDE0Ljg2ODUsLTguNTMxOTcpIj4mI3hhOwkJCTx0aXRsZSBpZD0idGl0bGUyNjUxIj5TaGVldC45NTI1PC90aXRsZT4mI3hhOwkJCTxwYXRoIGlkPSJwYXRoMjY1MyIgaW5rc2NhcGU6Y29ubmVjdG9yLWN1cnZhdHVyZT0iMCIgc3R5bGU9ImZpbGw6IzdGQkEwMDsiIGQ9Ik00LjkxLDE5LjIxYzAsMS4zOC0xLjEzLDIuNC0yLjM5LDIuNCAgICAgUzAsMjAuNDYsMCwxOS4yMWMwLTEuMjYsMS4xMy0yLjM4LDIuNTItMi4zOFM0LjkxLDE3Ljk1LDQuOTEsMTkuMjF6Ii8+JiN4YTsJCTwvZz4mI3hhOwk8L2c+JiN4YTs8L2c+JiN4YTs8L3N2Zz4=;fontStyle=0" vertex="1" parent="1">
          <mxGeometry x="55.09" y="250" width="30" height="18.85" as="geometry" />
        </mxCell>
        <mxCell id="OnrqargmPEVyfRrU8eS--37" value="" style="whiteSpace=wrap;html=1;fillColor=none;verticalAlign=top;" vertex="1" parent="1">
          <mxGeometry x="40.09" y="120" width="166.91" height="195" as="geometry" />
        </mxCell>
        <mxCell id="OnrqargmPEVyfRrU8eS--38" value="" style="shape=image;verticalLabelPosition=bottom;labelBackgroundColor=#ffffff;verticalAlign=top;aspect=fixed;imageAspect=0;image=data:image/svg+xml,PHN2ZyB4bWxuczpjYz0iaHR0cDovL2NyZWF0aXZlY29tbW9ucy5vcmcvbnMjIiB4bWxuczpkYz0iaHR0cDovL3B1cmwub3JnL2RjL2VsZW1lbnRzLzEuMS8iIHhtbG5zOmlua3NjYXBlPSJodHRwOi8vd3d3Lmlua3NjYXBlLm9yZy9uYW1lc3BhY2VzL2lua3NjYXBlIiB4bWxuczpyZGY9Imh0dHA6Ly93d3cudzMub3JnLzE5OTkvMDIvMjItcmRmLXN5bnRheC1ucyMiIHhtbG5zOnNvZGlwb2RpPSJodHRwOi8vc29kaXBvZGkuc291cmNlZm9yZ2UubmV0L0RURC9zb2RpcG9kaS0wLmR0ZCIgeG1sbnM6c3ZnPSJodHRwOi8vd3d3LnczLm9yZy8yMDAwL3N2ZyIgeG1sbnM9Imh0dHA6Ly93d3cudzMub3JnLzIwMDAvc3ZnIiB4bWxuczp4bGluaz0iaHR0cDovL3d3dy53My5vcmcvMTk5OS94bGluayIgdmVyc2lvbj0iMS4xIiBpZD0ic3ZnNjEzNCIgaW5rc2NhcGU6dmVyc2lvbj0iMC45Mi4zICgyNDA1NTQ2LCAyMDE4LTAzLTExKSIgc29kaXBvZGk6ZG9jbmFtZT0idmlydHVhbF9uZXR3b3JrXzEuc3ZnIiB4PSIwcHgiIHk9IjBweCIgdmlld0JveD0iMCAwIDM0LjYxIDE5Ljg1IiBzdHlsZT0iZW5hYmxlLWJhY2tncm91bmQ6bmV3IDAgMCAzNC42MSAxOS44NTsiIHhtbDpzcGFjZT0icHJlc2VydmUiPiYjeGE7PHNvZGlwb2RpOm5hbWVkdmlldyBib3JkZXJjb2xvcj0iIzY2NjY2NiIgYm9yZGVyb3BhY2l0eT0iMSIgZml0LW1hcmdpbi1ib3R0b209IjAiIGZpdC1tYXJnaW4tbGVmdD0iMCIgZml0LW1hcmdpbi1yaWdodD0iMCIgZml0LW1hcmdpbi10b3A9IjAiIGdyaWR0b2xlcmFuY2U9IjEwIiBndWlkZXRvbGVyYW5jZT0iMTAiIGlkPSJuYW1lZHZpZXc2MTM2IiBpbmtzY2FwZTpjdXJyZW50LWxheWVyPSJzdmc2MTM0IiBpbmtzY2FwZTpjeD0iMjMuMDc1MjcxIiBpbmtzY2FwZTpjeT0iMTMuMjMyNTUiIGlua3NjYXBlOnBhZ2VvcGFjaXR5PSIwIiBpbmtzY2FwZTpwYWdlc2hhZG93PSIyIiBpbmtzY2FwZTp3aW5kb3ctaGVpZ2h0PSIxMDE3IiBpbmtzY2FwZTp3aW5kb3ctbWF4aW1pemVkPSIxIiBpbmtzY2FwZTp3aW5kb3ctd2lkdGg9IjE5MjAiIGlua3NjYXBlOndpbmRvdy14PSItOCIgaW5rc2NhcGU6d2luZG93LXk9Ii04IiBpbmtzY2FwZTp6b29tPSIxNC42Njg5NzgiIG9iamVjdHRvbGVyYW5jZT0iMTAiIHBhZ2Vjb2xvcj0iI2ZmZmZmZiIgc2hvd2dyaWQ9ImZhbHNlIj4mI3hhOwk8L3NvZGlwb2RpOm5hbWVkdmlldz4mI3hhOzxnIGlkPSJnNjEzMiIgdHJhbnNmb3JtPSJ0cmFuc2xhdGUoLTEyLjI0MTQ2MSwtMTIuMjM5MSkiPiYjeGE7CTx0aXRsZSBpZD0idGl0bGU2MTAyIj5QYWdlLTE8L3RpdGxlPiYjeGE7CTxnIGlkPSJncm91cDk1MDctMSIgdHJhbnNmb3JtPSJ0cmFuc2xhdGUoMTIuMTI4NCwtMTIuMTI4NCkiPiYjeGE7CQk8dGl0bGUgaWQ9InRpdGxlNjEwNCI+VmlydHVhbCBOZXR3b3JrICMxPC90aXRsZT4mI3hhOwkJPGcgaWQ9InNoYXBlOTUwOC0yIiB0cmFuc2Zvcm09InRyYW5zbGF0ZSgyMy43MDk5KSI+JiN4YTsJCQk8dGl0bGUgaWQ9InRpdGxlNjEwNiI+U2hlZXQuOTUwODwvdGl0bGU+JiN4YTsJCQk8cGF0aCBpZD0icGF0aDYxMDgiIGlua3NjYXBlOmNvbm5lY3Rvci1jdXJ2YXR1cmU9IjAiIHN0eWxlPSJmaWxsOiMzOTk5QzY7IiBkPSJNMTAuNzgsMzQuNzljMC4zNS0wLjM1LDAuMjgtMC45LDAtMS4yNSAgICAgbC0xLjY2LTEuNjVsLTcuNDYtNy4yNmMtMC4zNS0wLjM1LTAuODMtMC4zNS0xLjE4LDBjLTAuMzQsMC4zNC0wLjQxLDAuOSwwLDEuMjRsNy44Miw3LjY3YzAuMzQsMC4zNSwwLjM0LDAuOSwwLDEuMjVsLTcuOTUsNy45NSAgICAgYy0wLjM1LDAuMzQtMC4zNSwwLjksMCwxLjI0YzAuMzQsMC4zNSwwLjg5LDAuMjgsMS4xNywwbDcuNC03LjMyYzAsMCwwLDAsMC4wNy0wLjA3TDEwLjc4LDM0Ljc5eiIvPiYjeGE7CQk8L2c+JiN4YTsJCTxnIGlkPSJzaGFwZTk1MDktNCI+JiN4YTsJCQk8dGl0bGUgaWQ9InRpdGxlNjExMSI+U2hlZXQuOTUwOTwvdGl0bGU+JiN4YTsJCQk8cGF0aCBpZD0icGF0aDYxMTMiIGlua3NjYXBlOmNvbm5lY3Rvci1jdXJ2YXR1cmU9IjAiIHN0eWxlPSJmaWxsOiMzOTk5QzY7IiBkPSJNMC4zNSwzNC43OWMtMC4zNS0wLjM1LTAuMjgtMC45LDAtMS4yNUwyLDMxLjg5ICAgICBsNy40Ny03LjI2YzAuMzUtMC4zNSwwLjgzLTAuMzUsMS4xOCwwYzAuMzQsMC4zNCwwLjQxLDAuOSwwLDEuMjRsLTcuNjgsNy42N2MtMC4zNCwwLjM1LTAuMzQsMC45LDAsMS4yNWw3LjgxLDcuOTUgICAgIGMwLjM1LDAuMzQsMC4zNSwwLjksMCwxLjI0Yy0wLjM0LDAuMzUtMC45LDAuMjgtMS4xNywwbC03LjU0LTcuMjZjMCwwLDAsMC0wLjA3LTAuMDZMMC4zNSwzNC43OXoiLz4mI3hhOwkJPC9nPiYjeGE7CQk8ZyBpZD0ic2hhcGU5NTEwLTYiIHRyYW5zZm9ybT0idHJhbnNsYXRlKDguMDE4NTEsLTcuODgwMjYpIj4mI3hhOwkJCTx0aXRsZSBpZD0idGl0bGU2MTE2Ij5TaGVldC45NTEwPC90aXRsZT4mI3hhOwkJCTxwYXRoIGlkPSJwYXRoNjExOCIgaW5rc2NhcGU6Y29ubmVjdG9yLWN1cnZhdHVyZT0iMCIgc3R5bGU9ImZpbGw6IzdGQkEwMDsiIGQ9Ik00LjcsNDIuMDVjMCwxLjMxLTEuMTEsMi4yOC0yLjI4LDIuMjggICAgIEMxLjI0LDQ0LjMzLDAsNDMuMjIsMCw0Mi4wNWMwLTEuMTgsMC45Ny0yLjI4LDIuNDItMi4yOEMzLjgsMzkuNzcsNC43LDQwLjg3LDQuNyw0Mi4wNXoiLz4mI3hhOwkJPC9nPiYjeGE7CQk8ZyBpZD0ic2hhcGU5NTExLTgiIHRyYW5zZm9ybT0idHJhbnNsYXRlKDE1LjAwMDEsLTcuODgwMjYpIj4mI3hhOwkJCTx0aXRsZSBpZD0idGl0bGU2MTIxIj5TaGVldC45NTExPC90aXRsZT4mI3hhOwkJCTxwYXRoIGlkPSJwYXRoNjEyMyIgaW5rc2NhcGU6Y29ubmVjdG9yLWN1cnZhdHVyZT0iMCIgc3R5bGU9ImZpbGw6IzdGQkEwMDsiIGQ9Ik00LjcsNDIuMDVjMCwxLjMxLTEuMTEsMi4yOC0yLjI4LDIuMjggICAgIEMxLjI0LDQ0LjMzLDAsNDMuMjIsMCw0Mi4wNWMwLTEuMTgsMS4xMS0yLjI4LDIuNDItMi4yOFM0LjcsNDAuODcsNC43LDQyLjA1eiIvPiYjeGE7CQk8L2c+JiN4YTsJCTxnIGlkPSJzaGFwZTk1MTItMTAiIHRyYW5zZm9ybT0idHJhbnNsYXRlKDIyLjE4OTIsLTcuODgwMjYpIj4mI3hhOwkJCTx0aXRsZSBpZD0idGl0bGU2MTI2Ij5TaGVldC45NTEyPC90aXRsZT4mI3hhOwkJCTxjaXJjbGUgaWQ9ImVsbGlwc2U2MTI4IiBzdHlsZT0iZmlsbDojN0ZCQTAwOyIgY3g9IjIuMjgiIGN5PSI0Mi4wNSIgcj0iMi4yOCIvPiYjeGE7CQk8L2c+JiN4YTsJPC9nPiYjeGE7PC9nPiYjeGE7PC9zdmc+;fillColor=none;" vertex="1" parent="1">
          <mxGeometry x="36" y="72" width="35" height="20" as="geometry" />
        </mxCell>
        <mxCell id="OnrqargmPEVyfRrU8eS--39" value="" style="whiteSpace=wrap;html=1;fillColor=none;verticalAlign=top;" vertex="1" parent="1">
          <mxGeometry x="27" y="81" width="198" height="249" as="geometry" />
        </mxCell>
        <mxCell id="OnrqargmPEVyfRrU8eS--40" value="&lt;b&gt;VNet&lt;/b&gt;" style="text;html=1;align=center;verticalAlign=middle;resizable=0;points=[];autosize=1;strokeColor=none;" vertex="1" parent="1">
          <mxGeometry x="79" y="64" width="45" height="18" as="geometry" />
        </mxCell>
        <mxCell id="OnrqargmPEVyfRrU8eS--42" value="&lt;b&gt;&lt;font style=&quot;font-size: 15px&quot;&gt;Central India&lt;/font&gt;&lt;/b&gt;" style="text;html=1;align=center;verticalAlign=middle;resizable=0;points=[];autosize=1;strokeColor=none;" vertex="1" parent="1">
          <mxGeometry x="66.09" y="361" width="108" height="18" as="geometry" />
        </mxCell>
        <mxCell id="OnrqargmPEVyfRrU8eS--43" value="" style="whiteSpace=wrap;html=1;fillColor=none;verticalAlign=top;fontStyle=1;strokeWidth=2;" vertex="1" parent="1">
          <mxGeometry x="9" y="52" width="234" height="308" as="geometry" />
        </mxCell>
        <mxCell id="OnrqargmPEVyfRrU8eS--47" value="" style="aspect=fixed;pointerEvents=1;shadow=0;dashed=0;html=1;strokeColor=none;labelPosition=center;verticalLabelPosition=bottom;verticalAlign=top;align=center;fillColor=#00188D;shape=mxgraph.mscae.enterprise.router" vertex="1" parent="1">
          <mxGeometry x="324" y="109.92" width="75.64" height="59" as="geometry" />
        </mxCell>
        <mxCell id="OnrqargmPEVyfRrU8eS--49" value="" style="aspect=fixed;pointerEvents=1;shadow=0;dashed=0;html=1;strokeColor=none;labelPosition=center;verticalLabelPosition=bottom;verticalAlign=top;align=center;fillColor=#00188D;shape=mxgraph.mscae.enterprise.router" vertex="1" parent="1">
          <mxGeometry x="327.64" y="191.73" width="74.71" height="58.27" as="geometry" />
        </mxCell>
        <mxCell id="OnrqargmPEVyfRrU8eS--52" value="" style="whiteSpace=wrap;html=1;strokeWidth=2;fillColor=none;verticalAlign=top;" vertex="1" parent="1">
          <mxGeometry x="305" y="93" width="120" height="207" as="geometry" />
        </mxCell>
        <mxCell id="OnrqargmPEVyfRrU8eS--53" value="&lt;b style=&quot;font-size: 14px&quot;&gt;MS Edge&lt;br&gt;&amp;nbsp;Router&lt;/b&gt;" style="text;html=1;align=center;verticalAlign=middle;resizable=0;points=[];autosize=1;strokeColor=none;" vertex="1" parent="1">
          <mxGeometry x="315" y="46" width="72" height="36" as="geometry" />
        </mxCell>
        <mxCell id="OnrqargmPEVyfRrU8eS--54" value="&lt;b&gt;&lt;font style=&quot;font-size: 15px&quot;&gt;Mumbai DC&lt;/font&gt;&lt;/b&gt;" style="text;html=1;align=center;verticalAlign=middle;resizable=0;points=[];autosize=1;strokeColor=none;" vertex="1" parent="1">
          <mxGeometry x="318.72" y="297" width="99" height="18" as="geometry" />
        </mxCell>
        <mxCell id="OnrqargmPEVyfRrU8eS--55" value="" style="shape=flexArrow;endArrow=classic;startArrow=classic;html=1;width=12;endSize=5.77;" edge="1" parent="1">
          <mxGeometry width="100" height="100" relative="1" as="geometry">
            <mxPoint x="243" y="201" as="sourcePoint" />
            <mxPoint x="305" y="201.06" as="targetPoint" />
            <Array as="points">
              <mxPoint x="287" y="201.06" />
            </Array>
          </mxGeometry>
        </mxCell>
        <mxCell id="OnrqargmPEVyfRrU8eS--56" value="" style="rounded=1;whiteSpace=wrap;html=1;strokeWidth=3;fillColor=none;verticalAlign=top;strokeColor=#0000FF;" vertex="1" parent="1">
          <mxGeometry x="-18" y="27" width="468" height="360" as="geometry" />
        </mxCell>
        <mxCell id="OnrqargmPEVyfRrU8eS--57" value="&lt;font&gt;&lt;b&gt;AZURE&lt;/b&gt;&lt;/font&gt;" style="text;html=1;align=center;verticalAlign=middle;resizable=0;points=[];autosize=1;strokeColor=none;" vertex="1" parent="1">
          <mxGeometry x="56" y="1" width="54" height="18" as="geometry" />
        </mxCell>
        <mxCell id="OnrqargmPEVyfRrU8eS--67" value="" style="verticalLabelPosition=bottom;html=1;verticalAlign=top;align=center;strokeColor=none;fillColor=#00BEF2;shape=mxgraph.azure.computer;pointerEvents=1;fontColor=#000000;" vertex="1" parent="1">
          <mxGeometry x="396" y="234" width="50" height="45" as="geometry" />
        </mxCell>
        <mxCell id="OnrqargmPEVyfRrU8eS--68" value="" style="verticalLabelPosition=bottom;html=1;verticalAlign=top;align=center;strokeColor=none;fillColor=#00BEF2;shape=mxgraph.azure.computer;pointerEvents=1;fontColor=#000000;" vertex="1" parent="1">
          <mxGeometry x="756" y="130" width="50" height="45" as="geometry" />
        </mxCell>
        <mxCell id="OnrqargmPEVyfRrU8eS--69" value="" style="verticalLabelPosition=bottom;html=1;verticalAlign=top;align=center;strokeColor=none;fillColor=#00BEF2;shape=mxgraph.azure.computer;pointerEvents=1;fontColor=#000000;" vertex="1" parent="1">
          <mxGeometry x="756" y="195" width="50" height="45" as="geometry" />
        </mxCell>
        <mxCell id="OnrqargmPEVyfRrU8eS--72" value="" style="verticalLabelPosition=bottom;html=1;verticalAlign=top;align=center;strokeColor=none;fillColor=#00BEF2;shape=mxgraph.azure.computer;pointerEvents=1;fontColor=#000000;" vertex="1" parent="1">
          <mxGeometry x="756" y="255" width="50" height="45" as="geometry" />
        </mxCell>
        <mxCell id="OnrqargmPEVyfRrU8eS--73" value="&lt;b&gt;Subnet&lt;/b&gt;" style="text;html=1;align=center;verticalAlign=middle;resizable=0;points=[];autosize=1;strokeColor=none;fontColor=#000000;" vertex="1" parent="1">
          <mxGeometry x="704" y="100" width="54" height="18" as="geometry" />
        </mxCell>
        <mxCell id="OnrqargmPEVyfRrU8eS--74" value="&lt;b style=&quot;color: rgb(0, 0, 0); font-family: helvetica; font-size: 12px; font-style: normal; letter-spacing: normal; text-align: center; text-indent: 0px; text-transform: none; word-spacing: 0px; background-color: rgb(248, 249, 250);&quot;&gt;Subnet&lt;/b&gt;" style="text;whiteSpace=wrap;html=1;fontColor=#000000;" vertex="1" parent="1">
          <mxGeometry x="648" y="171" width="63" height="27" as="geometry" />
        </mxCell>
      </root>
    </mxGraphModel>
  </diagram>
</mxfile>
